<svg xmlns="http://www.w3.org/2000/svg" viewBox="0 0 240 300" width="240" height="300" role="img" aria-label="仙人掌植物学手稿">
  <defs>
    <filter id="paperGrain">
      <feTurbulence type="fractalNoise" baseFrequency=".035" numOctaves="4" seed="23"/>
      <feColorMatrix type="saturate" values=".18"/>
      <feBlend in="SourceGraphic" mode="multiply"/>
    </filter>
    <filter id="softInk" x="-20%" y="-20%" width="140%" height="140%">
      <feDropShadow dx="0" dy="5" stdDeviation="3" flood-color="#8b765a" flood-opacity=".25"/>
    </filter>
    <radialGradient id="wash" cx="50%" cy="38%" r="62%">
      <stop offset="0" stop-color="#f7f0df"/>
      <stop offset="1" stop-color="#d8ccaf"/>
    </radialGradient>
  </defs>
  <rect width="240" height="300" rx="24" fill="#d8ccaf"/>
  <rect x="10" y="10" width="220" height="280" rx="21" fill="url(#wash)" filter="url(#paperGrain)"/>
  <path d="M24 34h55M162 34h54M24 266h54M162 266h54" stroke="#927d5e" stroke-width="1" opacity=".42"/>
  <text x="24" y="55" font-family="serif" font-size="7" fill="#6f5d4a" opacity=".62" transform="rotate(-4 24 55)">specimen study</text>
  <text x="158" y="55" font-family="serif" font-size="7" fill="#6f5d4a" opacity=".62" transform="rotate(-4 158 55)">刺座顶花</text>
  <path d="M51 58L92 92" stroke="#6f5d4a" stroke-width=".8" opacity=".38" stroke-dasharray="3 3"/>
  <path d="M184 58L151 94" stroke="#6f5d4a" stroke-width=".8" opacity=".38" stroke-dasharray="3 3"/>
  <g filter="url(#softInk)">

    <path d="M102 238V84c0-38 38-38 38 0v154z" fill="#1f91b7" fill-opacity=".54" stroke="#16506c" stroke-width="1.5"/>
    <path d="M100 162c-54 0-54-82-10-86 24-2 30 38 28 78" fill="none" stroke="#1f91b7" stroke-opacity=".55" stroke-width="24" stroke-linecap="round"/>
    <path d="M142 154c54-10 54-84 10-88-24-2-30 39-28 82" fill="none" stroke="#8ccfe0" stroke-opacity=".62" stroke-width="24" stroke-linecap="round"/>
    <path d="M121 88v128M92 106l-12-8M92 154l-13 8M151 103l13-9M150 151l14 10" stroke="#fffdf2" stroke-width="1.4" stroke-linecap="round"/>
    <circle cx="121" cy="66" r="12" fill="#b87962" fill-opacity=".85" stroke="#16506c" stroke-width="1.1"/>

  </g>
  <g opacity=".62">
    <circle cx="42" cy="226" r="17" fill="none" stroke="#6f5d4a" stroke-width="1"/>
    <path d="M31 226h22M42 215v22" stroke="#6f5d4a" stroke-width=".8"/>
    <text x="25" y="253" font-family="serif" font-size="7" fill="#6f5d4a" opacity=".62" transform="rotate(-4 25 253)">detail</text>
    <path d="M190 218c17 8 16 25 0 33-15-8-15-25 0-33z" fill="none" stroke="#6f5d4a" stroke-width="1"/>
    <path d="M190 220v29" stroke="#6f5d4a" stroke-width=".8"/>
  </g>
  <text x="120" y="277" text-anchor="middle" font-family="serif" font-size="15" fill="#66533d" letter-spacing="5">仙人掌</text>
</svg>
