<svg xmlns="http://www.w3.org/2000/svg" viewBox="0 0 100 100" width="100" height="100">
  <!-- 小葱剪影 - 细长直立 -->
  <g fill="#d0d0d0" stroke="none">
    <!-- 葱1 -->
    <path d="M30,90 Q29,60 28,35 Q28,20 30,10 Q32,20 32,35 Q31,60 30,90Z"/>
    <!-- 葱2 -->
    <path d="M42,90 Q41,55 40,30 Q40,15 42,8 Q44,15 44,30 Q43,55 42,90Z"/>
    <!-- 葱3 -->
    <path d="M54,90 Q53,55 52,30 Q52,15 54,8 Q56,15 56,30 Q55,55 54,90Z"/>
    <!-- 葱4 -->
    <path d="M66,90 Q65,60 64,35 Q64,20 66,10 Q68,20 68,35 Q67,60 66,90Z"/>
    <!-- 葱5（小） -->
    <path d="M78,90 Q77,65 76,45 Q76,32 78,24 Q80,32 80,45 Q79,65 78,90Z"/>
    <!-- 葱6（小） -->
    <path d="M20,90 Q19,68 18,48 Q18,36 20,28 Q22,36 22,48 Q21,68 20,90Z"/>
  </g>
</svg>