<svg xmlns="http://www.w3.org/2000/svg" viewBox="0 0 100 100" width="100" height="100">
  <!-- 番茄剪影 - 红色圆果 -->
  <g fill="#d0d0d0" stroke="none">
    <!-- 茎 -->
    <path d="M50,90 Q48,65 48,50 Q48,40 50,35 Q52,40 52,50 Q52,65 50,90Z"/>
    <!-- 叶子 -->
    <path d="M48,55 Q36,48 28,42 Q24,38 26,36 Q30,38 36,42 Q42,48 48,52Z"/>
    <path d="M52,58 Q64,51 72,45 Q76,41 74,39 Q70,41 64,45 Q58,51 52,55Z"/>
    <path d="M48,48 Q40,42 34,38 Q30,36 32,34 Q36,36 40,40 Q44,44 48,46Z"/>
    <!-- 果实 -->
    <circle cx="50" cy="25" r="16"/>
    <!-- 蒂 -->
    <path d="M42,12 Q46,8 50,10 Q54,8 58,12 Q54,14 50,12 Q46,14 42,12Z"/>
    <path d="M44,14 Q46,10 50,12 Q54,10 56,14" fill="none" stroke="#d0d0d0" stroke-width="2"/>
    <!-- 小蒂叶 -->
    <path d="M42,12 Q36,8 32,10 Q34,14 38,14 Q40,14 42,12Z"/>
    <path d="M58,12 Q64,8 68,10 Q66,14 62,14 Q60,14 58,12Z"/>
  </g>
</svg>