<svg xmlns="http://www.w3.org/2000/svg" viewBox="0 0 100 100" width="100" height="100">
  <!-- 琴叶榕手绘插图 - 大型提琴形叶子 -->
  <g fill="none" stroke="#2c2c2c" stroke-width="1.5" stroke-linecap="round" stroke-linejoin="round">
    <!-- 主叶 -->
    <path d="M50,12 Q30,18 22,35 Q18,50 22,65 Q28,78 40,85 Q46,88 50,90 Q54,88 60,85 Q72,78 78,65 Q82,50 78,35 Q70,18 50,12Z" fill="#8fc48a" stroke="#2c2c2c"/>
    <!-- 叶脉 - 主脉 -->
    <path d="M50,18 Q50,50 50,88" stroke="#2c2c2c" stroke-width="1.2" opacity="0.5"/>
    <!-- 叶脉 - 侧脉 -->
    <path d="M50,25 Q38,30 28,40" stroke="#2c2c2c" stroke-width="0.8" opacity="0.3"/>
    <path d="M50,25 Q62,30 72,40" stroke="#2c2c2c" stroke-width="0.8" opacity="0.3"/>
    <path d="M50,40 Q36,46 26,55" stroke="#2c2c2c" stroke-width="0.8" opacity="0.3"/>
    <path d="M50,40 Q64,46 74,55" stroke="#2c2c2c" stroke-width="0.8" opacity="0.3"/>
    <path d="M50,55 Q38,60 30,68" stroke="#2c2c2c" stroke-width="0.8" opacity="0.3"/>
    <path d="M50,55 Q62,60 70,68" stroke="#2c2c2c" stroke-width="0.8" opacity="0.3"/>
    <path d="M50,68 Q42,72 36,78" stroke="#2c2c2c" stroke-width="0.8" opacity="0.3"/>
    <path d="M50,68 Q58,72 64,78" stroke="#2c2c2c" stroke-width="0.8" opacity="0.3"/>
    <!-- 茎 -->
    <path d="M50,88 Q49,92 48,98" stroke="#2c2c2c" stroke-width="2.5" fill="none"/>
  </g>
</svg>