<svg xmlns="http://www.w3.org/2000/svg" viewBox="0 0 120 120" width="120" height="120" role="img" aria-label="薄荷识别插画">
  <defs>
    <radialGradient id="paper" cx="50%" cy="38%" r="65%">
      <stop offset="0" stop-color="#fff8de"/>
      <stop offset="1" stop-color="#eadfbd"/>
    </radialGradient>
    <linearGradient id="pot" x1="0" x2="0" y1="0" y2="1">
      <stop offset="0" stop-color="#d7a06d"/>
      <stop offset="1" stop-color="#a7704c"/>
    </linearGradient>
    <filter id="shadow" x="-20%" y="-20%" width="140%" height="140%">
      <feDropShadow dx="1.4" dy="2.1" stdDeviation="1.1" flood-color="#3a2a20" flood-opacity=".24"/>
    </filter>
  </defs>
  <rect x="7" y="7" width="106" height="106" rx="20" fill="url(#paper)"/>
  <g filter="url(#shadow)">

    <path d="M60 83c-1-27 0-49 1-65" fill="none" stroke="#3e8054" stroke-width="3"/>
    <path d="M47 30l-8 4 5 4-7 5 8 3-3 7 10-2 2 8 6-9c-2-9-6-16-13-20z" fill="#79c28e" stroke="#263126" stroke-width="1.1"/>
    <path d="M73 34l8 4-5 4 7 5-8 3 3 7-10-2-2 8-6-9c2-9 6-16 13-20z" fill="#5dab78" stroke="#263126" stroke-width="1.1"/>
    <path d="M47 61l-8 4 5 4-7 5 8 3-3 7 10-2 2 8 6-9c-2-9-6-16-13-20z" fill="#84cd95" stroke="#263126" stroke-width="1.1"/>
    <path d="M73 64l8 4-5 4 7 5-8 3 3 7-10-2-2 8-6-9c2-9 6-16 13-20z" fill="#65b981" stroke="#263126" stroke-width="1.1"/>
    <path d="M38 82h44l-5 22H43z" fill="url(#pot)" stroke="#3a2a22" stroke-width="1.4"/>
    <path d="M34 78h52v8H34z" fill="#c78b5e" stroke="#3a2a22" stroke-width="1.4" rx="3"/>

  </g>
  <path d="M24 102c15 5 57 5 72 0" fill="none" stroke="#b69a6c" stroke-width="2.4" opacity=".32" stroke-linecap="round"/>
</svg>
