<svg xmlns="http://www.w3.org/2000/svg" viewBox="0 0 120 120" width="120" height="120" role="img" aria-label="辣椒识别插画">
  <defs>
    <radialGradient id="paper" cx="50%" cy="38%" r="65%">
      <stop offset="0" stop-color="#fff8de"/>
      <stop offset="1" stop-color="#eadfbd"/>
    </radialGradient>
    <linearGradient id="pot" x1="0" x2="0" y1="0" y2="1">
      <stop offset="0" stop-color="#d7a06d"/>
      <stop offset="1" stop-color="#a7704c"/>
    </linearGradient>
    <filter id="shadow" x="-20%" y="-20%" width="140%" height="140%">
      <feDropShadow dx="1.4" dy="2.1" stdDeviation="1.1" flood-color="#3a2a20" flood-opacity=".24"/>
    </filter>
  </defs>
  <rect x="7" y="7" width="106" height="106" rx="20" fill="url(#paper)"/>
  <g filter="url(#shadow)">

    <path d="M60 82c0-23 1-43 3-61" fill="none" stroke="#4d8356" stroke-width="3"/>
    <path d="M54 28c15 8 18 30 3 48-13-16-12-36-3-48z" fill="#db4b41" stroke="#30251d" stroke-width="1.3"/>
    <path d="M72 33c12 10 11 28-2 42-10-14-9-31 2-42z" fill="#c83f39" stroke="#30251d" stroke-width="1.3"/>
    <path d="M55 27c-5-5-2-12 5-15 5 5 3 12-3 16zM72 32c-4-5-1-11 5-13 4 5 2 10-3 14z" fill="#4f9958" stroke="#30251d" stroke-width="1"/>
    <ellipse cx="42" cy="64" rx="10" ry="15" transform="rotate(-38 42 64)" fill="#5aa45f" stroke="#263126" stroke-width="1.2"/>
    <path d="M38 82h44l-5 22H43z" fill="url(#pot)" stroke="#3a2a22" stroke-width="1.4"/>
    <path d="M34 78h52v8H34z" fill="#c78b5e" stroke="#3a2a22" stroke-width="1.4" rx="3"/>

  </g>
  <path d="M24 102c15 5 57 5 72 0" fill="none" stroke="#b69a6c" stroke-width="2.4" opacity=".32" stroke-linecap="round"/>
</svg>
