<svg xmlns="http://www.w3.org/2000/svg" viewBox="0 0 120 120" width="120" height="120" role="img" aria-label="吊兰识别插画">
  <defs>
    <radialGradient id="paper" cx="50%" cy="38%" r="65%">
      <stop offset="0" stop-color="#fff8de"/>
      <stop offset="1" stop-color="#eadfbd"/>
    </radialGradient>
    <linearGradient id="pot" x1="0" x2="0" y1="0" y2="1">
      <stop offset="0" stop-color="#d7a06d"/>
      <stop offset="1" stop-color="#a7704c"/>
    </linearGradient>
    <filter id="shadow" x="-20%" y="-20%" width="140%" height="140%">
      <feDropShadow dx="1.4" dy="2.1" stdDeviation="1.1" flood-color="#3a2a20" flood-opacity=".24"/>
    </filter>
  </defs>
  <rect x="7" y="7" width="106" height="106" rx="20" fill="url(#paper)"/>
  <g filter="url(#shadow)">

    <path d="M60 82c-18-18-27-38-28-62" fill="none" stroke="#5fa36b" stroke-width="4" stroke-linecap="round"/>
    <path d="M58 82c-4-24-3-46 1-66" fill="none" stroke="#86c977" stroke-width="4.5" stroke-linecap="round"/>
    <path d="M62 82c14-19 23-38 27-60" fill="none" stroke="#5fa36b" stroke-width="4" stroke-linecap="round"/>
    <path d="M50 80c-22-5-35-17-42-35" fill="none" stroke="#8ed284" stroke-width="3.5" stroke-linecap="round"/>
    <path d="M70 80c22-5 35-17 42-35" fill="none" stroke="#8ed284" stroke-width="3.5" stroke-linecap="round"/>
    <path d="M61 33c8 19 14 30 25 39" fill="none" stroke="#5fa36b" stroke-width="1.5"/>
    <circle cx="91" cy="76" r="5" fill="#8fd48b" stroke="#263126" stroke-width="1.1"/>
    <path d="M88 76l-7 7M94 76l7 7" stroke="#5fa36b" stroke-width="1.3" stroke-linecap="round"/>
    <path d="M38 82h44l-5 22H43z" fill="url(#pot)" stroke="#3a2a22" stroke-width="1.4"/>
    <path d="M34 78h52v8H34z" fill="#c78b5e" stroke="#3a2a22" stroke-width="1.4" rx="3"/>

  </g>
  <path d="M24 102c15 5 57 5 72 0" fill="none" stroke="#b69a6c" stroke-width="2.4" opacity=".32" stroke-linecap="round"/>
</svg>
